<svg width="163" height="50" viewBox="0 0 163 50" fill="none" xmlns="http://www.w3.org/2000/svg">
<path d="M8.33333 0H154.167C158.767 0 162.5 3.73333 162.5 8.33333V41.6667C162.5 46.2667 158.767 50 154.167 50H8.33333C3.73333 50 0 46.2667 0 41.6667V8.33333C0 3.73333 3.73333 0 8.33333 0Z" fill="#282828"/>
<path d="M37.0661 25.9584C37.0328 22.1667 40.1661 20.3251 40.3161 20.2334C38.5411 17.6417 35.7828 17.2834 34.8078 17.2584C32.4911 17.0167 30.2494 18.6417 29.0744 18.6417C27.8744 18.6417 26.0494 17.2834 24.0994 17.3167C21.5828 17.3584 19.2244 18.8167 17.9328 21.0751C15.2661 25.6917 17.2578 32.4667 19.8078 36.2084C21.0911 38.0334 22.5828 40.0751 24.5328 40.0001C26.4411 39.9167 27.1578 38.7834 29.4661 38.7834C31.7494 38.7834 32.4244 40.0001 34.4161 39.9584C36.4661 39.9251 37.7578 38.1251 38.9911 36.2834C40.4661 34.1834 41.0578 32.1251 41.0911 32.0251C41.0411 32.0084 37.0994 30.5001 37.0661 25.9584Z" fill="white"/>
<path d="M33.3005 14.8167C34.3255 13.525 35.0338 11.7833 34.8338 10C33.3505 10.0667 31.4839 11.025 30.4172 12.2833C29.4672 13.3917 28.6172 15.2083 28.8338 16.9167C30.5172 17.0417 32.2255 16.075 33.3005 14.8167Z" fill="white"/>
<path d="M50.1997 16.6667H49.3497L52.4831 9.55002H53.1997L56.3247 16.6667H55.4831L52.6914 10.15H52.9914L50.1997 16.6667ZM50.6747 14.8333L50.9664 14.15H54.7081L54.9997 14.8333H50.6747ZM58.5331 16.6667L56.3914 11.65H57.2414L59.0581 16.0833H58.8164L60.6581 11.65H61.4664L59.3081 16.6667H58.5331ZM64.2414 16.7333C63.7914 16.7333 63.3997 16.6333 63.0581 16.425C62.7247 16.2083 62.4664 15.9083 62.2747 15.525C62.0914 15.1333 62.0081 14.675 62.0081 14.1417C62.0081 13.6083 62.0997 13.1583 62.2914 12.7583C62.4831 12.3583 62.7414 12.0583 63.0747 11.8417C63.4164 11.625 63.8081 11.5083 64.2414 11.5083C64.6997 11.5083 65.0914 11.625 65.4081 11.85C65.7247 12.075 65.9414 12.4 66.0581 12.8167L65.9414 12.9V11.6333H66.7414V16.6667H65.9414V15.3667L66.0581 15.425C65.9414 15.8417 65.7247 16.1667 65.4081 16.3917C65.0914 16.625 64.6997 16.7333 64.2414 16.7333ZM64.3997 16.0667C64.8914 16.0667 65.2747 15.9 65.5414 15.5667C65.8081 15.225 65.9414 14.75 65.9414 14.125C65.9414 13.5 65.8081 13.025 65.5331 12.6917C65.2664 12.3583 64.8914 12.1917 64.3997 12.1917C63.9081 12.1917 63.5164 12.3667 63.2414 12.7083C62.9664 13.05 62.8331 13.525 62.8331 14.1417C62.8331 14.7583 62.9664 15.225 63.2414 15.5583C63.5164 15.9 63.9081 16.0667 64.3997 16.0667ZM68.3081 16.6667V11.6333H69.1164V16.6667H68.3081ZM68.2247 9.50835H69.2164V10.425H68.2247V9.50835ZM70.6914 16.6667V9.30835H71.4997V16.6667H70.6914ZM74.9997 16.7333C74.5497 16.7333 74.1581 16.6333 73.8164 16.425C73.4831 16.2083 73.2247 15.9083 73.0331 15.525C72.8497 15.1333 72.7664 14.675 72.7664 14.1417C72.7664 13.6083 72.8581 13.1583 73.0497 12.7583C73.2414 12.3583 73.4997 12.0583 73.8331 11.8417C74.1747 11.625 74.5664 11.5083 74.9997 11.5083C75.4581 11.5083 75.8497 11.625 76.1664 11.85C76.4831 12.075 76.6997 12.4 76.8164 12.8167L76.6997 12.9V11.6333H77.4997V16.6667H76.6997V15.3667L76.8164 15.425C76.6997 15.8417 76.4831 16.1667 76.1664 16.3917C75.8497 16.625 75.4581 16.7333 74.9997 16.7333ZM75.1581 16.0667C75.6497 16.0667 76.0331 15.9 76.2997 15.5667C76.5664 15.225 76.6997 14.75 76.6997 14.125C76.6997 13.5 76.5664 13.025 76.2914 12.6917C76.0247 12.3583 75.6497 12.1917 75.1581 12.1917C74.6664 12.1917 74.2747 12.3667 73.9997 12.7083C73.7247 13.05 73.5914 13.525 73.5914 14.1417C73.5914 14.7583 73.7247 15.225 73.9997 15.5583C74.2831 15.9 74.6664 16.0667 75.1581 16.0667ZM79.0664 16.6667V9.30835H79.8747V12.925L79.7664 12.825C79.8831 12.4083 80.0997 12.0917 80.4164 11.8667C80.7331 11.6333 81.1247 11.5167 81.5747 11.5167C82.0247 11.5167 82.4081 11.625 82.7414 11.8333C83.0747 12.05 83.3331 12.35 83.5247 12.7333C83.7164 13.1167 83.8164 13.575 83.8164 14.1C83.8164 14.625 83.7164 15.0917 83.5247 15.4917C83.3414 15.8833 83.0747 16.1917 82.7331 16.4083C82.3997 16.625 82.0164 16.725 81.5747 16.725C81.1247 16.725 80.7331 16.6083 80.4164 16.3833C80.0997 16.1583 79.8831 15.8333 79.7664 15.4167L79.8747 15.3083V16.6667H79.0664ZM81.4247 16.0667C81.9081 16.0667 82.2914 15.9 82.5664 15.5583C82.8414 15.2083 82.9747 14.725 82.9747 14.1083C82.9747 13.5 82.8414 13.0333 82.5664 12.7C82.2914 12.3667 81.9164 12.2 81.4247 12.2C80.9247 12.2 80.5414 12.3667 80.2747 12.7083C80.0081 13.0417 79.8747 13.5167 79.8747 14.125C79.8747 14.7417 80.0081 15.225 80.2747 15.5667C80.5414 15.9 80.9247 16.0667 81.4247 16.0667ZM85.0664 16.6667V9.30835H85.8747V16.6667H85.0664ZM91.5664 16.0667C91.3497 16.275 91.0664 16.4333 90.7164 16.5583C90.3747 16.675 90.0247 16.7417 89.6664 16.7417C89.1497 16.7417 88.6997 16.6417 88.3164 16.4333C87.9414 16.225 87.6497 15.9333 87.4497 15.5417C87.2497 15.15 87.1497 14.6833 87.1497 14.1417C87.1497 13.625 87.2497 13.1667 87.4497 12.775C87.6497 12.3833 87.9247 12.075 88.2831 11.8583C88.6414 11.6417 89.0581 11.525 89.5247 11.525C89.9747 11.525 90.3581 11.625 90.6747 11.825C90.9914 12.0167 91.2414 12.3 91.4081 12.6667C91.5831 13.0333 91.6664 13.475 91.6664 13.9833V14.1333H87.8664V13.6H91.2081L90.9497 13.9667C90.9664 13.3833 90.8497 12.9333 90.5997 12.6167C90.3581 12.3 90.0081 12.15 89.5414 12.15C89.0581 12.15 88.6747 12.325 88.3914 12.6667C88.1164 13.0083 87.9831 13.4833 87.9831 14.0833C87.9831 14.7333 88.1247 15.2333 88.4164 15.5667C88.7081 15.9 89.1331 16.0667 89.6997 16.0667C89.9914 16.0667 90.2747 16.0167 90.5414 15.925C90.8164 15.825 91.0747 15.675 91.3247 15.475L91.5664 16.0667ZM97.5747 16.7333C97.0914 16.7333 96.6747 16.625 96.3164 16.4167C95.9664 16.2 95.6831 15.9 95.4831 15.5167C95.2914 15.125 95.1914 14.6583 95.1914 14.125C95.1914 13.6 95.2914 13.1417 95.4831 12.7417C95.6831 12.35 95.9581 12.0417 96.3164 11.8333C96.6747 11.6167 97.0997 11.5167 97.5747 11.5167C98.0581 11.5167 98.4747 11.625 98.8247 11.8333C99.1831 12.05 99.4581 12.35 99.6581 12.7417C99.8581 13.1333 99.9581 13.5917 99.9581 14.125C99.9581 14.6583 99.8581 15.125 99.6581 15.5167C99.4664 15.9 99.1914 16.2 98.8247 16.4167C98.4664 16.6333 98.0497 16.7333 97.5747 16.7333ZM97.5747 16.0667C98.0664 16.0667 98.4497 15.9 98.7164 15.575C98.9914 15.2417 99.1247 14.7583 99.1247 14.125C99.1247 13.5083 98.9914 13.025 98.7164 12.6917C98.4414 12.3583 98.0664 12.1917 97.5747 12.1917C97.0831 12.1917 96.7081 12.3583 96.4247 12.6917C96.1497 13.025 96.0164 13.5 96.0164 14.125C96.0164 14.7583 96.1497 15.2417 96.4164 15.575C96.6831 15.9 97.0747 16.0667 97.5747 16.0667ZM101.216 16.6667V13.05C101.216 12.8167 101.208 12.5833 101.2 12.35C101.191 12.1083 101.175 11.875 101.141 11.6417H101.908L102 12.6833L101.9 12.7667C102.041 12.3583 102.275 12.05 102.6 11.85C102.925 11.6333 103.3 11.5333 103.733 11.5333C104.941 11.5333 105.541 12.2 105.541 13.525V16.6667H104.733V13.55C104.733 13.0833 104.641 12.7417 104.45 12.5333C104.266 12.3167 103.966 12.2 103.566 12.2C103.1 12.2 102.725 12.3417 102.45 12.6333C102.166 12.9167 102.033 13.3083 102.033 13.7917V16.6667H101.216ZM108.966 12.275V11.6333H112.2V12.275H108.966ZM112.175 15.95V16.6417C112.058 16.675 111.95 16.7 111.833 16.7083C111.725 16.725 111.608 16.7417 111.475 16.7417C111.008 16.7417 110.633 16.6083 110.358 16.3417C110.083 16.075 109.95 15.675 109.95 15.1417V10.35L110.758 10.0583V15.025C110.758 15.2917 110.791 15.5 110.866 15.6417C110.95 15.7917 111.05 15.8917 111.183 15.95C111.316 16 111.466 16.0333 111.633 16.0333C111.733 16.0333 111.825 16.025 111.9 16.0167C111.983 16 112.075 15.9833 112.175 15.95ZM113.166 16.6667V9.30835H113.975V12.6583L113.841 12.7583C113.983 12.35 114.216 12.0417 114.541 11.8417C114.866 11.625 115.241 11.525 115.675 11.525C116.883 11.525 117.483 12.1917 117.483 13.5167V16.6667H116.675V13.55C116.675 13.0833 116.583 12.7417 116.391 12.5333C116.208 12.3167 115.908 12.2 115.508 12.2C115.041 12.2 114.666 12.3417 114.391 12.6333C114.108 12.9167 113.975 13.3083 113.975 13.7917V16.6667H113.166ZM123.141 16.0667C122.925 16.275 122.641 16.4333 122.291 16.5583C121.95 16.675 121.6 16.7417 121.241 16.7417C120.725 16.7417 120.275 16.6417 119.891 16.4333C119.516 16.225 119.225 15.9333 119.025 15.5417C118.825 15.15 118.725 14.6833 118.725 14.1417C118.725 13.625 118.825 13.1667 119.025 12.775C119.225 12.3833 119.5 12.075 119.858 11.8583C120.216 11.6417 120.633 11.525 121.1 11.525C121.55 11.525 121.933 11.625 122.25 11.825C122.566 12.0167 122.816 12.3 122.983 12.6667C123.158 13.0333 123.241 13.475 123.241 13.9833V14.1333H119.441V13.6H122.783L122.525 13.9667C122.541 13.3833 122.425 12.9333 122.175 12.6167C121.933 12.3 121.583 12.15 121.116 12.15C120.633 12.15 120.25 12.325 119.966 12.6667C119.691 13.0083 119.558 13.4833 119.558 14.0833C119.558 14.7333 119.7 15.2333 119.991 15.5667C120.283 15.9 120.708 16.0667 121.275 16.0667C121.566 16.0667 121.85 16.0167 122.116 15.925C122.391 15.825 122.65 15.675 122.9 15.475L123.141 16.0667Z" fill="white"/>
<path d="M60.167 33.3249H53.2086L51.767 36.6665H49.167L55.6086 22.4249H57.7086L64.167 36.6665H61.5836L60.167 33.3249ZM59.3086 31.3249L56.692 25.2249L54.0753 31.3249H59.3086ZM71.2836 26.3082C72.1503 26.3082 72.917 26.5332 73.5836 26.9915C74.267 27.4332 74.792 28.0582 75.167 28.8749C75.5503 29.6749 75.7503 30.5915 75.7503 31.6332C75.7503 32.6749 75.567 33.5832 75.192 34.3749C74.817 35.1582 74.292 35.7665 73.6086 36.1915C72.942 36.6165 72.167 36.8332 71.292 36.8332C70.5586 36.8332 69.9086 36.6832 69.3336 36.3749C68.7586 36.0582 68.317 35.6165 68.017 35.0582V40.9999H65.5336V29.4249C65.5336 28.3582 65.4836 27.4082 65.3753 26.5665H67.717L67.917 28.3082C68.1836 27.6832 68.617 27.1915 69.217 26.8499C69.8086 26.4832 70.5003 26.3082 71.2836 26.3082ZM70.6086 34.8665C71.4503 34.8665 72.092 34.5832 72.5503 34.0249C73.0086 33.4665 73.2336 32.6665 73.2336 31.6249C73.2336 30.5749 73.0086 29.7499 72.5503 29.1665C72.1003 28.5665 71.4586 28.2665 70.6336 28.2665C69.7836 28.2665 69.1253 28.5499 68.6753 29.1249C68.2253 29.6999 67.992 30.5165 67.992 31.5832C67.992 32.6332 68.217 33.4499 68.6753 34.0249C69.117 34.5832 69.767 34.8665 70.6086 34.8665ZM83.692 26.3082C84.5586 26.3082 85.3253 26.5332 85.992 26.9915C86.6753 27.4332 87.2003 28.0582 87.5753 28.8749C87.9586 29.6749 88.1586 30.5915 88.1586 31.6332C88.1586 32.6749 87.9753 33.5832 87.6003 34.3749C87.2253 35.1582 86.7003 35.7665 86.017 36.1915C85.3503 36.6165 84.5753 36.8332 83.7003 36.8332C82.967 36.8332 82.317 36.6832 81.742 36.3749C81.167 36.0582 80.7253 35.6165 80.4253 35.0582V40.9999H77.942V29.4249C77.942 28.3582 77.892 27.4082 77.7836 26.5665H80.1253L80.3253 28.3082C80.592 27.6832 81.0253 27.1915 81.6253 26.8499C82.2086 26.4832 82.9003 26.3082 83.692 26.3082ZM83.0086 34.8665C83.8503 34.8665 84.492 34.5832 84.9503 34.0249C85.4003 33.4665 85.6336 32.6665 85.6336 31.6249C85.6336 30.5749 85.4086 29.7499 84.9503 29.1665C84.5003 28.5665 83.8586 28.2665 83.0336 28.2665C82.1836 28.2665 81.5253 28.5499 81.0753 29.1249C80.6253 29.6999 80.392 30.5165 80.392 31.5832C80.392 32.6332 80.617 33.4499 81.0753 34.0249C81.5253 34.5832 82.167 34.8665 83.0086 34.8665ZM100.817 36.8499C99.7253 36.8499 98.7003 36.6999 97.7336 36.4082C96.7836 36.1165 95.9836 35.6915 95.317 35.1499L96.2003 33.2665C96.892 33.7832 97.617 34.1749 98.3586 34.4249C99.117 34.6665 99.942 34.7832 100.842 34.7832C101.825 34.7832 102.592 34.6082 103.125 34.2665C103.675 33.9165 103.942 33.4332 103.942 32.8082C103.942 32.2749 103.692 31.8665 103.184 31.5915C102.692 31.2999 101.867 31.0249 100.725 30.7749C98.942 30.3915 97.642 29.8915 96.8253 29.2749C96.0086 28.6582 95.6086 27.7665 95.6086 26.5915C95.6086 25.7499 95.8336 25.0082 96.292 24.3499C96.742 23.6999 97.3836 23.1832 98.2086 22.8082C99.0503 22.4332 100.017 22.2499 101.109 22.2499C102.109 22.2499 103.059 22.3999 103.95 22.7082C104.859 22.9999 105.6 23.4165 106.167 23.9499L105.309 25.8332C104.042 24.8165 102.642 24.3165 101.109 24.3165C100.192 24.3165 99.4586 24.5082 98.9253 24.8999C98.392 25.2749 98.1253 25.7832 98.1253 26.4415C98.1253 26.9999 98.3586 27.4249 98.8253 27.7249C99.3086 28.0165 100.117 28.2915 101.267 28.5415C102.45 28.8249 103.417 29.1249 104.167 29.4582C104.917 29.7749 105.484 30.1999 105.884 30.7165C106.284 31.2249 106.484 31.8665 106.484 32.6332C106.484 33.4832 106.259 34.2332 105.8 34.8749C105.35 35.4999 104.692 35.9915 103.842 36.3332C102.992 36.6749 101.984 36.8499 100.817 36.8499ZM111.734 28.4499V32.9665C111.734 34.1499 112.284 34.7499 113.392 34.7499C113.7 34.7499 114.034 34.6999 114.392 34.5915V36.5749C113.95 36.7332 113.417 36.8165 112.792 36.8165C111.642 36.8165 110.767 36.4999 110.15 35.8582C109.534 35.2165 109.234 34.2999 109.234 33.0999V28.4582H107.292V26.5749H109.234V24.1165L111.734 23.2749V26.5749H114.417V28.4582H111.734V28.4499ZM120.709 36.8249C119.684 36.8249 118.775 36.6082 117.992 36.1832C117.217 35.7582 116.617 35.1499 116.192 34.3665C115.775 33.5665 115.575 32.6332 115.575 31.5665C115.575 30.4999 115.784 29.5749 116.192 28.7832C116.617 27.9832 117.217 27.3665 117.992 26.9415C118.775 26.5165 119.684 26.2999 120.709 26.2999C121.725 26.2999 122.617 26.5165 123.392 26.9415C124.167 27.3665 124.759 27.9832 125.175 28.7832C125.6 29.5665 125.817 30.4999 125.817 31.5665C125.817 32.6332 125.6 33.5665 125.175 34.3665C124.759 35.1499 124.167 35.7582 123.392 36.1832C122.617 36.6082 121.725 36.8249 120.709 36.8249ZM120.692 34.8665C121.542 34.8665 122.192 34.5915 122.634 34.0499C123.084 33.4915 123.317 32.6665 123.317 31.5665C123.317 30.4832 123.092 29.6665 122.634 29.1082C122.184 28.5332 121.542 28.2499 120.717 28.2499C119.875 28.2499 119.234 28.5332 118.775 29.1082C118.325 29.6665 118.092 30.4915 118.092 31.5665C118.092 32.6582 118.309 33.4832 118.75 34.0499C119.209 34.5915 119.85 34.8665 120.692 34.8665ZM133.409 26.3249C133.792 26.3249 134.125 26.3749 134.409 26.4832L134.392 28.7665C133.967 28.5915 133.525 28.5082 133.075 28.5082C132.225 28.5082 131.567 28.7582 131.117 29.2499C130.675 29.7415 130.459 30.3999 130.459 31.2082V36.6665H127.975V29.4249C127.975 28.3582 127.925 27.4082 127.817 26.5665H130.159L130.359 28.3499C130.609 27.6999 131.009 27.1999 131.559 26.8499C132.109 26.4999 132.717 26.3249 133.409 26.3249ZM144.442 31.7499H137.484C137.534 32.8332 137.8 33.6332 138.284 34.1499C138.775 34.6582 139.5 34.9082 140.467 34.9082C141.575 34.9082 142.6 34.5499 143.55 33.8249L144.267 35.5415C143.784 35.9249 143.192 36.2415 142.484 36.4832C141.792 36.7082 141.084 36.8249 140.367 36.8249C138.717 36.8249 137.417 36.3582 136.467 35.4249C135.517 34.4915 135.05 33.2082 135.05 31.5832C135.05 30.5582 135.259 29.6415 135.667 28.8415C136.084 28.0415 136.659 27.4249 137.409 26.9832C138.159 26.5332 139 26.2999 139.95 26.2999C141.334 26.2999 142.434 26.7499 143.234 27.6582C144.05 28.5499 144.45 29.7832 144.45 31.3582V31.7499H144.442ZM140.009 28.1082C139.342 28.1082 138.792 28.3082 138.367 28.7082C137.95 29.0915 137.684 29.6582 137.567 30.4082H142.267C142.184 29.6499 141.95 29.0749 141.567 28.6915C141.192 28.2999 140.675 28.1082 140.009 28.1082Z" fill="white"/>
</svg>
