<svg width="19" height="18" viewBox="0 0 19 18" fill="none" xmlns="http://www.w3.org/2000/svg">
<path d="M9.12676 0C4.09263 0 0 4.03579 0 9C0 13.9642 4.09263 18 9.12676 18C14.1609 18 18.2535 13.9642 18.2535 9C18.2535 4.03579 14.1609 0 9.12676 0ZM12.7198 11.4821C12.5469 11.7284 12.2779 11.8611 11.9897 11.8611C11.8168 11.8611 11.6246 11.8042 11.4709 11.7095L8.60798 9.72C8.37741 9.54947 8.22369 9.28421 8.22369 9V4.24421C8.22369 3.75158 8.62719 3.35368 9.12676 3.35368C9.62633 3.35368 10.0298 3.75158 10.0298 4.24421V8.54526L12.5085 10.2695C12.912 10.5347 13.008 11.0842 12.7198 11.4821Z" fill="#282828"/>
</svg>
