<svg width="163" height="50" viewBox="0 0 163 50" fill="none" xmlns="http://www.w3.org/2000/svg">
<path d="M8.33333 0H154.167C158.767 0 162.5 3.73333 162.5 8.33333V41.6667C162.5 46.2667 158.767 50 154.167 50H8.33333C3.73333 50 0 46.2667 0 41.6667V8.33333C0 3.73333 3.73333 0 8.33333 0Z" fill="#282828"/>
<path d="M80.9917 26.3749C78.3917 26.3749 76.2667 28.3582 76.2667 31.0749C76.2667 33.7832 78.3834 35.7749 80.9917 35.7749C83.5917 35.7749 85.7167 33.7832 85.7167 31.0749C85.7167 28.3415 83.5917 26.3749 80.9917 26.3749ZM80.9917 33.9249C79.5667 33.9249 78.3417 32.7499 78.3417 31.0749C78.3417 29.3832 79.5751 28.2249 80.9917 28.2249C82.4084 28.2249 83.6417 29.3832 83.6417 31.0749C83.6501 32.7415 82.4167 33.9249 80.9917 33.9249ZM70.6917 26.3749C68.0917 26.3749 65.9667 28.3582 65.9667 31.0749C65.9667 33.7832 68.0834 35.7749 70.6917 35.7749C73.2917 35.7749 75.4167 33.7832 75.4167 31.0749C75.4167 28.3415 73.2917 26.3749 70.6917 26.3749ZM70.6917 33.9249C69.2667 33.9249 68.0417 32.7499 68.0417 31.0749C68.0417 29.3832 69.2751 28.2249 70.6917 28.2249C72.1167 28.2249 73.3501 29.3832 73.3501 31.0749C73.3501 32.7415 72.1167 33.9249 70.6917 33.9249ZM58.4417 27.8165V29.8082H63.2167C63.0751 30.9249 62.7001 31.7499 62.1334 32.3165C61.4417 33.0082 60.3501 33.7749 58.4501 33.7749C55.5084 33.7749 53.2084 31.3999 53.2084 28.4665C53.2084 25.5249 55.5084 23.1582 58.4501 23.1582C60.0417 23.1582 61.1917 23.7832 62.0501 24.5832L63.4584 23.1749C62.2584 22.0332 60.6834 21.1582 58.4501 21.1582C54.4167 21.1582 51.0334 24.4415 51.0334 28.4582C51.0334 32.4915 54.4167 35.7582 58.4501 35.7582C60.6251 35.7582 62.2667 35.0415 63.5417 33.7082C64.8584 32.3915 65.2667 30.5415 65.2667 29.0415C65.2667 28.5832 65.2334 28.1499 65.1584 27.7999H58.4501V27.8165H58.4417ZM108.542 29.3665C108.15 28.3165 106.95 26.3749 104.508 26.3749C102.092 26.3749 100.075 28.2832 100.075 31.0749C100.075 33.7082 102.067 35.7749 104.742 35.7749C106.9 35.7749 108.142 34.4582 108.658 33.6915L107.058 32.6249C106.525 33.4082 105.792 33.9249 104.742 33.9249C103.692 33.9249 102.942 33.4415 102.458 32.4999L108.75 29.8999L108.542 29.3665ZM102.125 30.9332C102.067 29.1165 103.533 28.1915 104.583 28.1915C105.4 28.1915 106.1 28.6082 106.333 29.1915L102.125 30.9332ZM97.0168 35.4999H99.0834V21.6665H97.0168V35.4999ZM93.6334 27.4249H93.5667C93.1084 26.8749 92.2167 26.3749 91.0917 26.3749C88.7417 26.3749 86.5834 28.4415 86.5834 31.0999C86.5834 33.7332 88.7417 35.7832 91.0917 35.7832C92.2167 35.7832 93.1084 35.2832 93.5667 34.7165H93.6334V35.3915C93.6334 37.1915 92.6667 38.1582 91.1251 38.1582C89.8584 38.1582 89.0751 37.2499 88.7501 36.4832L86.9501 37.2332C87.4667 38.4749 88.8417 40.0082 91.1167 40.0082C93.5334 40.0082 95.5834 38.5832 95.5834 35.1082V26.6499H93.6251L93.6334 27.4249ZM91.2667 33.9249C89.8417 33.9249 88.6501 32.7249 88.6501 31.0915C88.6501 29.4332 89.8501 28.2249 91.2667 28.2249C92.6751 28.2249 93.7751 29.4332 93.7751 31.0915C93.7751 32.7332 92.6751 33.9249 91.2667 33.9249ZM118.225 21.6665H113.283V35.4999H115.35V30.2582H118.233C120.525 30.2582 122.775 28.5999 122.775 25.9665C122.767 23.3249 120.517 21.6665 118.225 21.6665ZM118.283 28.3332H115.35V23.5915H118.283C119.825 23.5915 120.7 24.8665 120.7 25.9665C120.7 27.0332 119.817 28.3332 118.283 28.3332ZM131.033 26.3415C129.542 26.3415 127.992 26.9999 127.358 28.4582L129.192 29.2249C129.583 28.4582 130.308 28.2165 131.075 28.2165C132.142 28.2165 133.225 28.8582 133.25 29.9999V30.1415C132.875 29.9249 132.075 29.6082 131.1 29.6082C129.125 29.6082 127.117 30.6915 127.117 32.7249C127.117 34.5749 128.733 35.7665 130.55 35.7665C131.942 35.7665 132.7 35.1415 133.183 34.4082H133.25V35.4749H135.242V30.1665C135.225 27.7165 133.4 26.3415 131.033 26.3415ZM130.792 33.9249C130.117 33.9249 129.175 33.5915 129.175 32.7499C129.175 31.6832 130.35 31.2749 131.358 31.2749C132.267 31.2749 132.692 31.4665 133.242 31.7332C133.075 33.0165 131.975 33.9249 130.792 33.9249ZM142.492 26.6499L140.125 32.6415H140.058L137.6 26.6499H135.375L139.05 35.0249L136.95 39.6832H139.1L144.775 26.6499H142.492V26.6499ZM123.9 35.4999H125.967V21.6665H123.9V35.4999Z" fill="white"/>
<path d="M17.1757 10.6584C16.8591 11 16.6674 11.525 16.6674 12.2084V36.6417C16.6674 37.3334 16.8591 37.85 17.1757 38.1917L17.2591 38.275L30.9507 24.5834V24.4167V24.2584L17.2591 10.5834L17.1757 10.6584Z" fill="#5BC9F4"/>
<path d="M35.5174 29.1665L30.9507 24.5998V24.4331V24.2748L35.5174 19.7081L35.6174 19.7665L41.0257 22.8415C42.5757 23.7248 42.5757 25.1498 41.0257 26.0331L35.6174 29.1081L35.5174 29.1665Z" fill="url(#paint0_linear_7538_14180)"/>
<path d="M35.6169 29.1L30.9502 24.4333L17.1752 38.2083C17.6836 38.7416 18.5252 38.8166 19.4752 38.275L35.6169 29.1Z" fill="url(#paint1_linear_7538_14180)"/>
<path d="M35.6169 19.7667L19.4752 10.5917C18.5252 10.0583 17.6836 10.1167 17.1752 10.6583L30.9502 24.4333L35.6169 19.7667Z" fill="url(#paint2_linear_7538_14180)"/>
<path d="M56.3415 11.4418C55.9332 11.0668 55.3832 10.8335 54.7749 10.8335C53.4165 10.8335 52.3665 11.9502 52.3665 13.3335C52.3665 14.7085 53.4082 15.8252 54.7749 15.8252C55.9415 15.8252 56.7999 15.1418 56.8499 14.0752H54.9999V13.3085H57.8499C57.8499 15.5918 56.6332 16.6668 54.7665 16.6668C52.9165 16.6668 51.4832 15.1752 51.4832 13.3335C51.4832 11.4835 52.9165 9.99182 54.7665 9.99182C55.6249 9.99182 56.3999 10.3252 56.9665 10.8502L56.3415 11.4418Z" fill="white"/>
<path d="M62.9007 10.0749V10.8915H59.9257V12.9665H62.5257V13.7915H59.9257V15.7582H62.9924V16.5749H59.0424V10.0665H62.9007V10.0749Z" fill="white"/>
<path d="M68.6004 10.075V10.9083H66.6254V16.5833H65.742V10.9083H63.767V10.075H68.6004Z" fill="white"/>
<path d="M72.8093 10.075V16.5833H71.9259V10.075H72.8093Z" fill="white"/>
<path d="M78.7999 10.075V10.9083H76.8249V16.5833H75.9333V10.9083H73.9583V10.075H78.7999Z" fill="white"/>
<path d="M84.9923 10C86.859 10 88.3007 11.4917 88.3007 13.3417C88.3007 15.1833 86.859 16.675 84.9923 16.675C83.1423 16.675 81.709 15.1833 81.709 13.3417C81.709 11.4917 83.1423 10 84.9923 10ZM84.9923 15.825C86.359 15.825 87.409 14.7167 87.409 13.3417C87.409 11.9583 86.3673 10.8417 84.9923 10.8417C83.634 10.8417 82.584 11.9583 82.584 13.3417C82.584 14.7167 83.634 15.825 84.9923 15.825Z" fill="white"/>
<path d="M93.4924 16.5833L90.5258 11.6833V16.5833H89.6425V10.075H90.5091L93.4424 14.9333V10.075H94.3257V16.5833H93.4924V16.5833Z" fill="white"/>
<defs>
<linearGradient id="paint0_linear_7538_14180" x1="40.0199" y1="24.4359" x2="13.2824" y2="24.4359" gradientUnits="userSpaceOnUse">
<stop stop-color="#FEE000"/>
<stop offset="0.1941" stop-color="#FCCF0B"/>
<stop offset="0.5469" stop-color="#FAB318"/>
<stop offset="0.8279" stop-color="#F9A21B"/>
<stop offset="1" stop-color="#F99B1C"/>
</linearGradient>
<linearGradient id="paint1_linear_7538_14180" x1="33.0807" y1="26.969" x2="7.93238" y2="52.117" gradientUnits="userSpaceOnUse">
<stop stop-color="#EF4547"/>
<stop offset="1" stop-color="#C6186D"/>
</linearGradient>
<linearGradient id="paint2_linear_7538_14180" x1="7.82147" y1="-3.36316" x2="28.354" y2="17.1695" gradientUnits="userSpaceOnUse">
<stop stop-color="#279E6F"/>
<stop offset="0.3168" stop-color="#4DAB6D"/>
<stop offset="0.7398" stop-color="#6ABA6A"/>
<stop offset="1" stop-color="#74C169"/>
</linearGradient>
</defs>
</svg>
