<svg width="17" height="22" viewBox="0 0 17 22" fill="none" xmlns="http://www.w3.org/2000/svg">
<path fill-rule="evenodd" clip-rule="evenodd" d="M0 8.20514C0 3.67885 3.71541 0 8.24169 0C12.8045 0 16.4834 3.67885 16.4834 8.20514C16.4834 11.9452 11.8589 17.3335 9.06322 20.9214C8.64923 21.4527 7.83416 21.4527 7.42016 20.9214C4.62449 17.3335 0 11.9452 0 8.20514Z" fill="#282828"/>
<path fill-rule="evenodd" clip-rule="evenodd" d="M8.23865 5.5C6.64681 5.5 5.38397 6.76284 5.38397 8.35468C5.38397 9.9864 6.64681 11.2492 8.23865 11.2492C9.8305 11.2492 11.1332 9.9864 11.1332 8.35468C11.1332 6.76284 9.82717 5.5 8.23865 5.5Z" fill="white"/>
</svg>
